<svg width="1335" height="1333" viewBox="0 0 1335 1333" fill="none" xmlns="http://www.w3.org/2000/svg">
<path d="M847.6 856.2C832.133 856.2 814.8 855.4 795.6 853.8C788.133 853.267 778.8 852.733 767.6 852.2C756.933 851.667 744.933 851.4 731.6 851.4L678.8 852.2C669.2 852.733 655.867 853 638.8 853C637.733 853 637.2 851.4 637.2 848.2C637.2 845 637.733 843.4 638.8 843.4C659.6 843.4 674.8 842.067 684.4 839.4C694.533 836.733 701.467 831.667 705.2 824.2C708.933 816.2 710.8 804.2 710.8 788.2V417.8C710.8 401.8 708.933 390.067 705.2 382.6C702 375.133 695.333 370.067 685.2 367.4C675.6 364.2 660.4 362.6 639.6 362.6C638.533 362.6 638 361 638 357.8C638 354.6 638.533 353 639.6 353L678.8 353.8C701.2 354.867 718.8 355.4 731.6 355.4C750.267 355.4 769.2 354.6 788.4 353C811.867 351.933 827.867 351.4 836.4 351.4C892.4 351.4 942 362.067 985.2 383.4C1028.4 404.733 1061.73 433.8 1085.2 470.6C1109.2 507.4 1121.2 548.733 1121.2 594.6C1121.2 646.333 1108.67 692.2 1083.6 732.2C1059.07 771.667 1026 802.333 984.4 824.2C942.8 845.533 897.2 856.2 847.6 856.2ZM839.6 845.8C884.4 845.8 924.133 836.733 958.8 818.6C993.467 800.467 1020.4 773.8 1039.6 738.6C1059.33 703.4 1069.2 661.267 1069.2 612.2C1069.2 565.267 1059.87 522.867 1041.2 485C1023.07 447.133 996.667 417.267 962 395.4C927.867 373 888.4 361.8 843.6 361.8C820.133 361.8 802 363.133 789.2 365.8C776.933 368.467 767.867 374.067 762 382.6C756.133 390.6 753.2 402.867 753.2 419.4V779.4C753.2 795.4 755.6 808.2 760.4 817.8C765.2 827.4 773.733 834.6 786 839.4C798.267 843.667 816.133 845.8 839.6 845.8Z" fill="#060A90"/>
<path d="M413 586.069C414.067 586.069 414.6 587.669 414.6 590.869C414.6 594.069 414.067 595.669 413 595.669C394.867 595.669 381.533 597.269 373 600.469C364.467 603.669 358.6 609.269 355.4 617.269C352.733 624.735 351.4 636.469 351.4 652.469V1113.27C351.4 1164.47 339.667 1205.27 316.2 1235.67C293.267 1266.07 259.4 1281.27 214.6 1281.27C197 1281.27 183.4 1278.34 173.8 1272.47C163.667 1267.14 158.6 1259.94 158.6 1250.87C158.6 1243.94 160.733 1238.34 165 1234.07C168.733 1229.8 174.333 1227.67 181.8 1227.67C189.8 1227.67 195.933 1229.27 200.2 1232.47C204.467 1235.67 209.267 1240.47 214.6 1246.87C218.867 1253.27 223.133 1258.07 227.4 1261.27C231.667 1264.47 237.533 1266.07 245 1266.07C265.8 1266.07 281.533 1254.34 292.2 1230.87C302.867 1207.94 308.2 1171.14 308.2 1120.47V650.869C308.2 634.869 306.067 623.135 301.8 615.669C298.067 608.202 290.6 603.135 279.4 600.469C268.2 597.269 250.6 595.669 226.6 595.669C225.533 595.669 225 594.069 225 590.869C225 587.669 225.533 586.069 226.6 586.069L272.2 586.869C296.733 587.935 315.667 588.469 329 588.469C342.333 588.469 359.133 587.935 379.4 586.869L413 586.069Z" fill="#060A90"/>
<path d="M495.6 605.75C495.067 605.75 494.533 604.95 494 603.35C493.733 601.483 493.6 599.617 493.6 597.75C493.6 596.15 493.733 594.683 494 593.35C494.267 591.75 494.667 590.95 495.2 590.95H627.6C628.133 590.95 628.533 591.75 628.8 593.35C629.333 594.683 629.6 596.283 629.6 598.15C629.6 600.017 629.333 601.75 628.8 603.35C628.533 604.95 628.133 605.75 627.6 605.75H495.6ZM569.2 664.15C569.2 664.683 568.267 665.217 566.4 665.75C564.533 666.017 562.533 666.15 560.4 666.15C556.133 666.15 554 665.75 554 664.95V532.55C554 532.017 554.8 531.617 556.4 531.35C558 530.817 559.733 530.55 561.6 530.55C563.467 530.55 565.2 530.817 566.8 531.35C568.4 531.617 569.2 532.017 569.2 532.55V664.15Z" fill="#060A90"/>
<path d="M1255.53 738.438C1238.43 858.393 1185.76 970.784 1104.06 1061.66C1022.36 1152.53 915.229 1217.88 795.962 1249.59C676.696 1281.31 550.553 1277.99 433.195 1240.05C315.837 1202.1 212.435 1131.21 135.828 1036.17C59.2206 941.136 12.7833 826.137 2.28175 705.457C-8.21975 584.776 17.6772 463.73 76.7571 357.35C135.837 250.969 225.497 163.94 334.604 107.069C443.712 50.1973 567.46 25.9889 690.483 37.4497L689.955 42.8883C568.019 31.5289 445.365 55.5233 337.222 111.892C229.079 168.261 140.211 254.521 81.6529 359.962C23.0951 465.402 -2.57302 585.378 7.83568 704.992C18.2444 824.606 64.2714 938.589 140.202 1032.79C216.132 1126.99 318.62 1197.25 434.941 1234.86C551.262 1272.46 676.291 1275.75 794.503 1244.32C912.715 1212.89 1018.9 1148.11 1099.88 1058.04C1180.86 967.975 1233.06 856.577 1250 737.683L1255.53 738.438Z" fill="#060A90"/>
<path d="M785.14 40.133C785.217 40.1689 785.19 40.2966 785.059 40.5163C784.927 40.736 784.823 40.8279 784.745 40.792C783.467 40.2007 782.472 39.8804 781.76 39.8313C781.048 39.7821 780.411 39.9784 779.85 40.42C779.35 40.843 778.771 41.6036 778.114 42.7019L759.38 74.0041C757.21 77.6286 754.6 80.0904 751.548 81.3895C748.474 82.7252 745.253 82.6135 741.884 81.0544C740.567 80.4451 739.673 79.7506 739.2 78.9707C738.667 78.2096 738.619 77.4629 739.057 76.7307C739.386 76.1816 739.823 75.8229 740.369 75.6547C740.914 75.4865 741.497 75.5457 742.117 75.8324C742.775 76.1371 743.202 76.4982 743.397 76.9157C743.57 77.3699 743.686 77.9612 743.744 78.6896C743.786 79.3634 743.877 79.8729 744.016 80.218C744.156 80.5631 744.477 80.8521 744.981 81.0851C746.375 81.7302 747.861 81.4363 749.439 80.2033C751.035 79.0248 752.84 76.7515 754.856 73.3833L774.346 40.818C775.003 39.7196 775.35 38.8515 775.386 38.2135C775.421 37.5755 775.087 36.9768 774.384 36.4174C773.741 35.8394 772.587 35.165 770.922 34.3945C770.844 34.3586 770.871 34.2309 771.003 34.0112C771.134 33.7915 771.239 33.6996 771.316 33.7355L774.652 35.3495C776.389 36.247 777.761 36.9288 778.768 37.3947C779.775 37.8606 781.036 38.3975 782.551 39.0052L785.14 40.133Z" fill="#060A90"/>
<path d="M828.262 106.486C826.108 105.267 824.549 103.702 823.584 101.792C822.681 99.8688 822.39 97.8287 822.708 95.6717C823.052 93.4803 823.943 91.4035 825.379 89.4412C827.018 87.2036 828.98 85.636 831.265 84.7385C833.612 83.8277 835.973 83.5086 838.347 83.7813C840.783 84.0406 842.948 84.7063 844.841 85.7784C847.032 87.0187 848.579 88.6005 849.481 90.5238C850.384 92.4471 850.657 94.4767 850.301 96.6127C850.008 98.7352 849.193 100.709 847.857 102.533C846.295 104.668 844.382 106.239 842.121 107.247C839.885 108.221 837.529 108.641 835.055 108.506C832.643 108.357 830.378 107.684 828.262 106.486ZM830.595 106.419C832.637 107.575 834.707 107.797 836.804 107.086C838.901 106.374 840.97 104.623 843.012 101.835C844.574 99.7005 845.583 97.5692 846.039 95.4409C846.531 93.3336 846.449 91.4368 845.793 89.7505C845.162 88.0298 843.993 86.686 842.285 85.719C840.28 84.5838 838.229 84.3722 836.132 85.0841C834.073 85.8171 832.123 87.4401 830.283 89.9532C828.745 92.0531 827.705 94.1912 827.162 96.3673C826.619 98.5435 826.638 100.526 827.218 102.316C827.799 104.105 828.925 105.473 830.595 106.419Z" fill="#060A90"/>
<path d="M920.814 132.014C920.92 132.086 920.888 132.218 920.719 132.41C920.55 132.602 920.413 132.662 920.307 132.59C919.425 131.99 918.395 131.75 917.218 131.87C916.104 131.982 914.69 132.531 912.977 133.516L892.778 144.733C888.738 146.951 885.375 148.529 882.689 149.466C880.01 150.459 877.729 150.903 875.846 150.799C873.97 150.752 872.238 150.187 870.651 149.107C869.875 148.579 869.382 147.986 869.17 147.33C868.923 146.65 869.067 146.005 869.603 145.397C869.997 144.948 870.466 144.704 871.009 144.664C871.552 144.624 872.053 144.76 872.511 145.072C872.97 145.384 873.316 145.696 873.548 146.009C873.781 146.321 873.975 146.709 874.131 147.173C874.173 147.253 874.282 147.481 874.459 147.858C874.671 148.258 875.023 148.626 875.517 148.962C876.399 149.562 877.552 149.758 878.976 149.55C880.372 149.374 882.258 148.737 884.634 147.64C887.046 146.567 890.225 144.942 894.173 142.764L892.936 144.073L898.153 122.963C898.582 121.001 898.769 119.668 898.712 118.964C898.683 118.227 898.334 117.631 897.664 117.175C897.593 117.127 897.643 117.007 897.812 116.815C897.981 116.622 898.101 116.55 898.171 116.598L899.928 117.871C900.323 118.191 900.891 118.603 901.631 119.108L905.06 121.365C905.582 121.669 906.283 122.121 907.165 122.721C907.236 122.769 907.186 122.889 907.017 123.081C906.848 123.274 906.728 123.346 906.658 123.298C904.612 121.905 903.265 121.577 902.617 122.314C902.447 122.506 902.31 122.822 902.204 123.262L897.526 141.743L894.576 142.884L911.686 132.867C912.645 132.291 913.322 131.778 913.716 131.33C914.365 130.593 914.498 129.865 914.117 129.145C913.764 128.392 912.865 127.524 911.419 126.539C911.348 126.491 911.398 126.371 911.567 126.179C911.736 125.987 911.856 125.915 911.926 125.963C912.879 126.611 913.588 127.119 914.053 127.487L917.185 129.697L919.132 130.945C919.513 131.153 920.074 131.509 920.814 132.014Z" fill="#060A90"/>
<path d="M980.383 207.924C978.531 206.283 977.337 204.433 976.8 202.374C976.328 200.315 976.48 198.273 977.257 196.247C978.066 194.194 979.387 192.367 981.22 190.769C983.309 188.945 985.573 187.841 988.009 187.457C990.51 187.072 992.896 187.265 995.168 188.034C997.504 188.804 999.486 189.911 1001.11 191.354C1003 193.024 1004.18 194.888 1004.65 196.947C1005.12 199.006 1004.95 201.034 1004.14 203.031C1003.4 205.028 1002.18 206.771 1000.47 208.257C998.478 209.996 996.263 211.114 993.826 211.612C991.421 212.082 989.018 211.988 986.618 211.33C984.281 210.673 982.203 209.538 980.383 207.924ZM982.688 208.356C984.444 209.913 986.428 210.569 988.64 210.324C990.852 210.079 993.26 208.82 995.864 206.548C997.858 204.809 999.307 202.955 1000.21 200.987C1001.15 199.046 1001.48 197.188 1001.19 195.412C1000.95 193.608 1000.09 192.055 998.618 190.753C996.894 189.224 994.926 188.583 992.714 188.828C990.534 189.101 988.271 190.261 985.924 192.309C983.962 194.02 982.481 195.873 981.48 197.87C980.479 199.867 980.071 201.795 980.256 203.655C980.441 205.516 981.252 207.083 982.688 208.356Z" fill="#060A90"/>
<path d="M1026.85 249.359C1026.76 249.267 1026.81 249.145 1027.02 248.991C1027.22 248.837 1027.37 248.805 1027.46 248.897C1028.35 249.814 1029.09 250.423 1029.68 250.722C1030.3 250.996 1030.92 251.03 1031.55 250.824C1032.21 250.648 1033.04 250.175 1034.07 249.405L1045.57 240.745C1046.46 240.077 1047 239.539 1047.19 239.13C1047.42 238.694 1047.37 238.224 1047.06 237.719C1046.78 237.189 1046.12 236.388 1045.07 235.318C1044.98 235.227 1045.04 235.104 1045.25 234.95C1045.49 234.77 1045.65 234.726 1045.74 234.818C1046.96 236.071 1047.93 236.797 1048.65 236.994C1049.44 237.196 1050.29 236.978 1051.21 236.342C1056.88 232.337 1061.76 230.224 1065.86 230.002C1069.98 229.81 1073.62 231.334 1076.78 234.575C1078.3 236.134 1079.26 237.608 1079.67 238.997C1080.14 240.391 1080 241.37 1079.25 241.934C1078.74 242.319 1078.16 242.459 1077.53 242.354C1076.96 242.253 1076.47 241.989 1076.05 241.561C1075.69 241.194 1075.48 240.796 1075.42 240.367C1075.38 239.969 1075.46 239.437 1075.64 238.772C1075.88 237.744 1075.9 236.826 1075.7 236.019C1075.57 235.217 1075.12 234.419 1074.35 233.624C1072.62 231.851 1070.11 231.304 1066.81 231.984C1063.52 232.664 1059.55 234.749 1054.92 238.239L1036.61 252.019C1035.56 252.815 1034.89 253.499 1034.62 254.072C1034.35 254.646 1034.43 255.302 1034.86 256.042C1035.28 256.782 1036.15 257.824 1037.46 259.169C1037.55 259.261 1037.49 259.384 1037.29 259.538C1037.08 259.692 1036.93 259.723 1036.85 259.631L1034.04 256.658C1033.45 255.99 1032.51 254.999 1031.23 253.684L1028.68 251.155C1028.23 250.753 1027.62 250.154 1026.85 249.359ZM1055.28 247.897C1053.92 245.53 1051.96 243.032 1049.4 240.403L1050.53 239.556C1052.34 241.421 1054.79 243.631 1057.87 246.187C1057.96 246.279 1057.91 246.445 1057.74 246.686C1057.56 246.927 1057.3 247.176 1056.96 247.432C1056.68 247.637 1056.35 247.81 1055.95 247.949C1055.59 248.063 1055.37 248.045 1055.28 247.897Z" fill="#060A90"/>
<path d="M1093.82 323.408C1093.08 322.418 1092.27 321.242 1091.41 319.88C1091.09 319.38 1090.67 318.744 1090.14 317.972C1089.64 317.233 1089.06 316.42 1088.39 315.532L1085.73 312.081C1085.23 311.488 1084.57 310.644 1083.76 309.552C1083.7 309.483 1083.79 309.385 1084.01 309.257C1084.23 309.128 1084.37 309.098 1084.42 309.167C1085.39 310.464 1086.19 311.35 1086.81 311.824C1087.45 312.331 1088.11 312.538 1088.78 312.444C1089.51 312.362 1090.43 312 1091.54 311.359L1117.18 296.507C1118.29 295.865 1119.03 295.293 1119.39 294.788C1119.75 294.284 1119.8 293.671 1119.52 292.949C1119.31 292.241 1118.71 291.237 1117.74 289.94C1117.69 289.871 1117.78 289.773 1118 289.645C1118.22 289.516 1118.36 289.486 1118.41 289.555L1120.27 292.148C1121.27 293.625 1122.09 294.79 1122.73 295.644C1123.7 296.942 1124.72 298.19 1125.77 299.39C1126.97 300.85 1127.79 301.87 1128.23 302.45C1130.89 306.002 1132.5 309.571 1133.07 313.159C1133.64 316.746 1133.21 320.029 1131.79 323.007C1130.39 326.019 1128.11 328.445 1124.93 330.284C1121.35 332.358 1117.59 333.412 1113.64 333.445C1109.76 333.491 1106.06 332.62 1102.55 330.833C1099.08 329.025 1096.17 326.55 1093.82 323.408ZM1094.26 322.415C1096.31 325.147 1098.74 327.218 1101.54 328.63C1104.38 330.02 1107.44 330.601 1110.71 330.372C1114.04 330.156 1117.4 329.064 1120.8 327.097C1124.01 325.236 1126.51 322.983 1128.28 320.338C1130.06 317.693 1130.93 314.89 1130.88 311.93C1130.83 308.97 1129.79 306.124 1127.74 303.392C1126.64 301.924 1125.69 300.833 1124.89 300.121C1124.12 299.442 1123.32 299.076 1122.48 299.021C1121.64 298.966 1120.67 299.259 1119.57 299.901L1094.64 314.335C1093.54 314.977 1092.77 315.616 1092.35 316.253C1091.95 316.924 1091.88 317.748 1092.14 318.726C1092.45 319.717 1093.16 320.946 1094.26 322.415Z" fill="#060A90"/>
<path d="M1141.18 391.177C1139.91 389.051 1139.35 386.996 1139.5 385.012C1139.65 383.027 1140.34 381.238 1141.56 379.645C1142.81 378.089 1144.4 376.864 1146.34 375.971C1148.62 374.916 1151.02 374.464 1153.53 374.614C1156.08 374.746 1158.42 375.441 1160.56 376.699C1162.75 377.976 1164.48 379.677 1165.75 381.802C1166.97 383.854 1167.33 385.698 1166.83 387.333C1166.32 388.969 1165.02 390.269 1162.93 391.235C1162.39 391.485 1161.97 391.609 1161.67 391.606C1161.39 391.64 1161.18 391.529 1161.03 391.272L1159.19 388.194L1160.27 387.767C1162.2 386.873 1163.44 385.791 1163.96 384.52C1164.49 383.249 1164.34 381.917 1163.51 380.525C1162.35 378.583 1160.63 377.438 1158.34 377.089C1156.08 376.778 1153.54 377.274 1150.71 378.579C1147.34 380.134 1145.06 382.146 1143.86 384.613C1142.66 387.081 1142.88 389.67 1144.49 392.382C1145.15 393.481 1145.86 394.344 1146.63 394.97C1147.42 395.633 1148.44 396.307 1149.69 396.993L1149.72 397.048C1149.79 397.158 1149.77 397.285 1149.65 397.43C1149.6 397.593 1149.5 397.665 1149.34 397.646C1145.61 396.191 1142.89 394.034 1141.18 391.177ZM1152.93 376.221L1160.61 388.59L1159.68 389.019L1152.21 376.625L1152.93 376.221Z" fill="#060A90"/>
<path d="M1176.94 452.784C1175.89 450.546 1175.52 448.439 1175.86 446.462C1176.19 444.485 1177.04 442.75 1178.41 441.257C1179.79 439.803 1181.48 438.71 1183.48 437.978C1185.85 437.114 1188.27 436.864 1190.74 437.227C1193.25 437.575 1195.51 438.47 1197.51 439.912C1199.56 441.378 1201.12 443.23 1202.17 445.467C1203.2 447.628 1203.38 449.506 1202.72 451.103C1202.07 452.699 1200.66 453.893 1198.49 454.683C1197.93 454.888 1197.5 454.977 1197.21 454.949C1196.93 454.959 1196.73 454.83 1196.6 454.56L1195.07 451.319L1196.18 450.982C1198.18 450.25 1199.51 449.269 1200.15 448.04C1200.79 446.81 1200.76 445.463 1200.07 443.997C1199.1 441.952 1197.51 440.658 1195.28 440.116C1193.07 439.612 1190.5 439.894 1187.57 440.963C1184.08 442.236 1181.63 444.059 1180.22 446.432C1178.8 448.804 1178.76 451.417 1180.11 454.272C1180.66 455.43 1181.28 456.355 1181.99 457.048C1182.71 457.78 1183.66 458.542 1184.83 459.335L1184.86 459.392C1184.91 459.508 1184.88 459.634 1184.75 459.77C1184.69 459.929 1184.58 459.992 1184.42 459.959C1180.86 458.185 1178.36 455.793 1176.94 452.784ZM1190 438.787L1196.44 451.836L1195.48 452.187L1189.24 439.131L1190 438.787Z" fill="#060A90"/>
<path d="M1250.96 527.176C1251.4 527.019 1252 527.414 1252.76 528.361C1253.57 529.298 1254.08 530.111 1254.31 530.799C1254.43 531.164 1254.4 531.347 1254.22 531.349L1236.44 532.473C1236.33 532.414 1236.22 532.288 1236.11 532.096C1236 531.904 1236.01 531.792 1236.13 531.76L1250.96 527.176Z" fill="#060A90"/>
<path d="M1226.46 571.448C1230.33 574.529 1233.48 576.88 1235.89 578.503C1238.31 580.125 1240.38 581.228 1242.1 581.811C1243.83 582.394 1245.44 582.542 1246.95 582.256C1248.63 581.937 1249.86 581.16 1250.66 579.925C1251.5 578.723 1251.73 577.315 1251.33 575.699C1250.52 572.426 1247.34 570.558 1241.79 570.096C1241.75 570.104 1241.71 570.025 1241.67 569.859C1241.57 569.486 1241.62 569.304 1241.8 569.314L1251.95 569.921C1252.03 569.905 1252.09 569.98 1252.13 570.146C1252.17 570.27 1252.15 570.382 1252.09 570.481C1252.07 570.613 1252.04 570.662 1251.99 570.629C1251.81 570.619 1251.58 570.642 1251.28 570.698C1250.61 570.826 1250.35 571.2 1250.51 571.822C1250.6 572.194 1250.9 572.788 1251.41 573.602C1252.37 575.198 1253.01 576.658 1253.34 577.984C1253.86 580.097 1253.68 581.866 1252.8 583.291C1251.97 584.749 1250.64 585.653 1248.79 586.004C1247.28 586.291 1245.68 586.097 1243.98 585.423C1242.29 584.79 1240.38 583.722 1238.25 582.217C1236.18 580.746 1233.51 578.63 1230.24 575.868C1230.08 575.726 1229.96 575.684 1229.88 575.742C1229.82 575.84 1229.81 575.993 1229.87 576.201C1230.99 580.758 1231.83 583.916 1232.39 585.674C1232.95 587.431 1233.61 588.652 1234.34 589.336C1235.08 590.019 1236.18 590.375 1237.63 590.402C1237.73 590.427 1237.78 590.548 1237.79 590.763C1237.85 591.011 1237.84 591.144 1237.75 591.16L1231.11 591.446C1230.94 591.478 1230.76 591.448 1230.56 591.356C1230.42 591.297 1230.32 591.184 1230.28 591.019L1225.62 572.063C1225.57 571.856 1225.64 571.67 1225.82 571.506C1226.04 571.334 1226.25 571.315 1226.46 571.448Z" fill="#060A90"/>
<path d="M1255.37 642.836C1256.2 648.794 1255.75 653.282 1254.01 656.3C1252.28 659.317 1249.57 661.024 1245.88 661.421C1243.46 661.681 1241.19 661.303 1239.07 660.287C1236.9 659.276 1234.73 657.558 1232.54 655.135C1230.31 652.757 1227.91 649.521 1225.31 645.425L1225.3 645.361C1225.28 645.192 1225.37 645.033 1225.56 644.883C1225.72 644.78 1225.85 644.809 1225.96 644.969C1229.27 649.889 1232.39 653.264 1235.31 655.094C1238.24 656.924 1241.2 657.677 1244.22 657.353C1247.74 656.975 1250.31 655.497 1251.93 652.921C1253.55 650.344 1254.06 646.838 1253.44 642.4C1253.41 642.189 1253.45 642.013 1253.56 641.873C1253.71 641.728 1253.9 641.665 1254.11 641.684L1265.72 642.495C1266.03 642.505 1266.2 642.55 1266.26 642.63C1266.35 642.706 1266.45 642.91 1266.54 643.244C1267.91 648.5 1268.86 652.023 1269.36 653.813C1269.87 655.603 1270.29 656.737 1270.61 657.217C1270.98 657.735 1271.5 658.065 1272.17 658.208C1272.3 658.236 1272.36 658.358 1272.35 658.574C1272.39 658.828 1272.32 658.943 1272.14 658.919L1267.32 658.15C1266.79 658.036 1266.44 657.859 1266.28 657.619C1266.12 657.421 1266 657.048 1265.93 656.499L1264.01 644.545C1263.93 643.996 1263.57 643.713 1262.92 643.697L1253.92 643.056L1255.37 642.836Z" fill="#060A90"/>
</svg>
